<?xml version="1.0" encoding="utf-8"?>
<!-- Generator: Adobe Illustrator 16.0.0, SVG Export Plug-In . SVG Version: 6.00 Build 0)  -->
<!DOCTYPE svg PUBLIC "-//W3C//DTD SVG 1.1//EN" "http://www.w3.org/Graphics/SVG/1.1/DTD/svg11.dtd">
<svg version="1.1" xmlns="http://www.w3.org/2000/svg" xmlns:xlink="http://www.w3.org/1999/xlink" x="0px" y="0px" width="864px"
	 height="864px" viewBox="0 0 864 864" enable-background="new 0 0 864 864" xml:space="preserve">
<g id="Layer_1">
	<path fill-rule="evenodd" clip-rule="evenodd" d="M526.807,650.542c7.07,8.705,13.564,17.343,20.743,25.367
		c7.796,8.717,5.584,18.855-0.674,25.624c-4.317,4.67-8.514,9.636-13.57,13.378c-3.78,2.797-9.158,5.845-13.273,5.211
		c-5.914-0.912-7.783-7.443-8.44-13.103c-1.264-10.879-2.106-21.805-4.523-32.939c-3.056,6.938-5.559,14.188-9.278,20.748
		c-8.613,15.196-20.674,25.461-39.237,26.615c-12.863,0.799-24.259-1.954-34.43-9.928c-7.978-6.255-8.573-13.437,0.124-19.702
		c12.475-8.986,24.619-18.432,38.23-28.679c-4.567,0.529-7.922,1.148-11.296,1.269c-12.984,0.466-25.983,1.203-38.958,0.932
		c-5.5-0.115-7.643,2.159-9.994,6.423c-6.141,11.137-11.554,23.025-19.567,32.7c-13.985,16.884-31.888,28.613-54.541,30.557
		c-11.458,0.983-21.035-4.428-30.334-10.607c-12.613-8.383-22.681-18.715-25.954-33.854c-1.469-6.795-0.85-14.042-1.232-22.231
		c-4.525,0.671-10.045,0.92-15.228,2.371c-12.67,3.551-25.552,6.791-37.61,11.897c-6.197,2.624-11.299,8.535-16.051,13.733
		c-10.175,11.132-20.576,22.204-29.412,34.37c-7.413,10.204-16.868,15.816-28.652,17.217c-12.243,1.457-24.188-1.176-35.269-6.803
		c-29.679-15.068-49.543-39.056-61.992-69.424c-11.737-28.634-16.856-58.588-15.119-89.467c1.753-31.185,18.621-55.519,48.177-66.57
		c9.343-3.493,19.465-4.285,29.614-2.148c8.997,1.895,18.069,3.731,27.202,4.557c5.015,0.452,10.423-0.597,15.299-2.111
		c7.248-2.252,14.182-5.516,21.353-8.391c-10.457-22.232-6.888-44.041-2.55-66.907c9.818,0,19.133,0,28.449,0
		c-20.554-11.847-33.208-28.362-37.175-51.478c-2.634-15.349,0.863-29.022,11.399-40.218c8.714-9.259,18.516-17.497,27.889-26.129
		c10.067-9.271,19.419-18.84,21.099-33.522c0.89-7.773-1.46-14.678-5.57-20.556c-7.831-11.201-16.538-21.796-25.029-32.525
		c-10.189-12.873-20.62-25.421-23.763-42.399c-4.349-23.492,3.765-37.096,23.069-46.496c19.695-9.59,41.005-11.214,62.559-6.356
		c5.178,1.167,10.297,2.593,16.072,4.06c-3.125-4.259-5.827-8.101-8.696-11.814c-3.743-4.844-5.296-12.787-3.018-16.219
		c3.079-4.636,8.98-6.463,15.763-5.252c13.79,2.458,24.578,10.631,35.591,18.402c2.317,1.634,4.572,3.354,7.958,5.847
		c-2.655-6.019-5.207-10.719-6.786-15.727c-1.243-3.94-1.939-8.297-1.704-12.402c0.328-5.707,5.544-5.454,9.26-5.136
		c11.401,0.975,20.643,6.755,28.875,14.379c23.062,21.359,41.075,46.542,56.299,74.732c45.647-15.35,91.415-20.796,138.236-3.868
		c46.081,16.66,82.338,44.386,105.332,88.599c0.562-0.214,1.123-0.429,1.684-0.644c5.062-14.376,10.023-28.788,15.223-43.114
		c3.341-9.21,8.312-17.479,16.029-23.729c9.691-7.849,20.765-7.192,31.934-4.444c27.883,6.861,52.52,20.397,73.703,39.339
		c25.546,22.841,47.426,48.867,60.633,81.12c5.346,13.053,2.665,25.022-6.811,34.903c-12.983,13.54-28.617,23.176-46.175,30.142
		c-22.458,8.91-46.037,13.14-69.379,18.483c-2.404,0.55-4.71,1.532-6.441,2.107c2.946,11.199,6.121,21.859,8.515,32.693
		c4.216,19.069,3.038,38.093-3.072,56.54c-4.376,13.212-8.577,26.835-15.473,38.761c-6.96,12.036-16.391,22.938-26.12,33.004
		c-11.409,11.805-23.147,23.996-36.852,32.7c-17.152,10.894-35.954,19.696-54.961,27.025c-19.4,7.479-39.911,12.077-59.931,17.953
		C528.456,649.561,527.991,649.914,526.807,650.542z"/>
	<g>
		<path fill-rule="evenodd" clip-rule="evenodd" fill="#F15A29" d="M508.869,652.263c-0.828,2.164-2.343,4.319-2.37,6.493
			c-0.188,14.79-7.133,27.317-14.505,39.115c-5.551,8.885-16.295,11.416-26.425,12.305c-12.359,1.084-24.348-0.468-34.57-8.69
			c-2.088-1.68-4.703-2.702-7.075-4.028c0.47-0.996,0.94-1.991,1.41-2.988c14.801-10.756,29.603-21.512,44.403-32.268
			c-0.239-0.756-0.479-1.512-0.718-2.266c-4.539,0-9.085-0.167-13.616,0.029c-15.837,0.687-31.665,1.609-47.505,2.176
			c-3.494,0.124-5.031,1.004-6.796,4.434c-6.154,11.952-11.588,24.822-20.208,34.838c-15.497,18.003-36.382,26.271-60.847,15.432
			c-21.2-9.394-36.468-24.729-42.863-47.796c-0.365-1.318-2.717-3.019-4.083-2.965c-5.687,0.223-9.297-3.319-12.866-6.642
			c-11.949-11.122-23.067-23.029-31.175-37.335c-11.296-19.932-19.589-41.021-22.596-63.864c-1.879-14.281-3.164-28.643-4.584-42.98
			c-0.458-4.619,0.744-6.888,6.398-5.321c3.248,0.9,7.163-0.601,10.776-1.034c1.851-0.222,3.699-0.472,6.021-0.771
			c1.898,66.295,26.836,119.978,83.924,156.418c-5.1,5.729-9.481,10.652-13.864,15.574c0.508,0.571,1.016,1.142,1.524,1.712
			c3.064-2.325,6.22-4.544,9.15-7.028c1.291-1.095,2.096-2.753,3.167-4.12c5.467-6.977,5.505-7.02-1.522-11.879
			c-24.459-16.915-40.809-40.299-52.835-66.942c-7.455-16.516-12.667-33.832-15.335-51.795c-1.558-10.484-2.598-21.05-3.671-31.6
			c-0.128-1.262,0.694-3.532,1.594-3.846c8.644-3.012,17.399-5.703,27.518-8.932c1.7,13.735,3.565,26.635,4.839,39.592
			c2.146,21.829,2.468,43.948,6.22,65.481c4.526,25.969,19.888,45.335,43.58,57.526c5.728,2.947,11.738,5.346,18.88,8.564
			c-7.337,11.393-15.373,23.867-23.408,36.343c14.289-9.906,21.58-24.94,29.332-40.334c-5.913-3.132-11.724-6-17.334-9.216
			c-23.68-13.576-38.003-33.29-42.375-60.796c-3.27-20.576-1.449-41.069-1.802-61.585c-0.231-13.427-0.623-26.688-4.236-39.698
			c-0.337-1.214-0.605-2.995,0.013-3.843c5.502-7.531,2.751-15.037-0.635-21.949c-4.056-8.281-9.462-15.89-13.848-24.024
			c-1.838-3.41-3.559-7.407-3.624-11.167c-0.411-23.894,2.083-47.528,9.4-70.352c4.322-13.484,9.838-26.587,14.023-40.331
			c-3.068,5.816-6.135,11.631-9.158,17.361c-5.315-7.423-10.042-14.894-15.643-21.637c-7.703-9.274-17.1-16.683-28.344-21.338
			c-3.772-1.561-5.518-3.667-5.173-7.835c0.315-3.813,0.067-7.672,0.067-12.535c25.506,5.146,46.086,18.738,64.206,37.059
			c0.72-1.642,2.171-3.65,2.386-5.783c0.237-2.354,0.211-5.676-1.195-7.11c-15.819-16.137-34.987-26.268-57.381-29.382
			c-8.104-1.127-12.581-4.521-16.272-11.883c-6.986-13.931-16.056-26.818-23.046-40.748c-8.735-17.408-3.847-34.874,12.269-46.184
			c18.845-13.225,40.199-15.647,62.465-12.946c5.854,0.71,11.678,1.671,17.82,2.562c-4.653-6.495-9.365-12.699-13.665-19.177
			c-4.503-6.783-3.37-13.394,2.315-14.355c3.199-0.542,6.945-0.918,9.812,0.222c7.843,3.121,15.574,6.69,22.928,10.829
			c6.96,3.917,13.385,8.785,21.032,12.615c-1.118-1.976-2.472-3.856-3.311-5.943c-2.981-7.419-6.103-14.808-8.531-22.412
			c-1.284-4.017,1.599-6.131,5.288-4.917c5.039,1.659,10.159,3.647,14.579,6.52c24.292,15.782,40.426,38.733,54.747,63.224
			c1.87,3.198,2.99,7.806,8.792,6.626c-3.523,1.528-7.189,2.795-10.54,4.638c-6.889,3.789-13.764,7.648-20.325,11.964
			c-2.923,1.924-4.295,1.045-6.356-0.979c-8.346-8.202-16.824-16.271-25.303-24.337c-3.649-3.472-7.342-6.907-11.168-10.179
			c-1.58-1.35-3.562-2.228-5.361-3.321c-0.541,0.674-1.082,1.347-1.622,2.021c13.99,13.564,27.979,27.127,42.601,41.305
			c-7.001,6.349-13.732,12.452-20.377,18.477c-23.155-18.746-47.04-35.288-73.214-48.2c-0.429,0.652-0.857,1.305-1.286,1.957
			c23.775,16.37,47.55,32.739,71.755,49.405c-5.513,7.255-10.315,13.272-14.79,19.522c-11.072,15.468-20,32.143-25.831,50.239
			c-4.538,14.086-8.489,28.408-11.78,42.836c-2.338,10.252-3.529,20.818-4.531,31.311c-1.159,12.124-2.585,24.368-2.021,36.473
			c0.771,16.511,2.61,33.055,5.29,49.373c2.706,16.477,6.32,32.877,10.739,48.981c8.044,29.321,19.356,57.479,38.607,81.321
			c13.066,16.183,30.844,26.977,50.779,32.826c14.437,4.235,29.421,7.451,44.373,8.836c14.465,1.338,28.787-2.205,41.554-9.771
			c2.079-1.231,2.916-4.56,4.327-6.918c-2.868-1.594-5.592-4.122-8.634-4.594c-7.594-1.18-15.359-1.201-23.01-2.088
			c-19.458-2.254-36.704-10.632-53.989-19.235c-26.939-13.411-37.507-38.521-47.663-64.215
			c-9.493-24.017-16.101-48.871-21.16-74.098c-3.065-15.287-5.225-30.834-6.556-46.371c-1.273-14.846-2.018-29.895-1.114-44.741
			c2.305-37.861,7.497-75.199,25.532-109.503c11.169-21.245,26.023-39.127,46.017-52.634c8.769-5.924,18.796-8.603,28.708-11.46
			c23.997-6.92,48.331-11.706,73.521-10.95c19.18,0.576,37.712,4.568,55.167,12.055c16.569,7.107,32.929,15.074,48.36,24.357
			c14.18,8.528,25.731,20.54,34.986,34.544c5.102,7.72,10.828,15.024,16.016,22.691c4.58,6.771,8.802,13.783,12.632,19.821
			c-9.252-0.518-19.337-1.49-29.428-1.557c-19.057-0.126-34.555,8.656-49.045,20.134c-12.438,9.852-19.634,23.328-25.789,37.209
			c-3.106,7.009-3.977,15.339-4.365,23.147c-0.612,12.322-0.822,24.664,3.807,36.695c3.51,9.125,9.667,15.471,16.934,21.419
			c17.912,14.663,38.954,21.718,61.426,21.035c28.153-0.854,52.317-11.938,68.895-36.144c3.432-5.011,6.798-10.067,10.519-15.582
			c7.052,17.543,13.982,34.216,15.657,53.062c2.051,23.062-3.428,44.127-10.719,65.483c-7.117,20.852-20.415,37.009-35.479,52.111
			c-11.74,11.77-22.632,24.828-37.66,32.547c-18.626,9.565-37.55,18.663-56.835,26.801c-18.045,7.613-37.119,12.228-56.473,15.532
			c-4.714,0.805-3.997,4.307-1.858,7.022c4.066,5.166,8.566,9.988,12.824,15.006c1.497,1.765,2.899,3.623,4.192,5.543
			c6.434,9.556,5.739,15.285-2.5,23.909c-5.299,5.547-10.516,11.337-19.178,9.787c-1.876-0.336-4.503-2.606-4.847-4.364
			c-1.909-9.763-3.244-19.638-4.695-29.485c-0.145-0.979,0.247-2.038,1.601-3.23c1.977,6.843,3.954,13.686,5.931,20.527
			c0.329,0.011,0.657,0.02,0.986,0.028c-0.125-2.463,0.224-5.065-0.456-7.364c-3.096-10.474-6.48-20.862-9.753-31.269
			c10.556,13.267,13.337,29.771,18.755,45.627c1.985-1.924,3.661-4.016,3.293-5.649c-0.909-4.044-2.674-7.91-4.239-11.79
			c-3.032-7.513-6.163-14.985-9.253-22.476c0.317-0.191,0.636-0.384,0.953-0.575c6.182,8.312,12.362,16.624,18.775,25.249
			c1.563-5.806-18.689-33.742-27.49-37.988C509.307,647.308,509.088,649.785,508.869,652.263z M333.688,392.386
			c-0.806,1.381-1.974,2.669-2.359,4.159c-3.429,13.247-4.298,26.819-3.188,40.336c0.851,10.348,2.611,21.138,10.275,28.891
			c6.565,6.642,14.108,12.513,21.916,17.671c6.609,4.368,14.014,7.755,21.447,10.571c5.115,1.938,10.845,2.504,16.363,3.062
			c7.909,0.802,16.081,2.41,23.778,1.259c23.109-3.46,44.475-11.173,59.188-30.94c7.4-9.944,15.312-19.308,18.025-32.33
			c3.293-15.806,0.547-30.492-3.835-45.376c-3.164-10.752-10.868-18.578-16.954-27.466c-6.688-9.769-15.149-17.892-25.492-23.265
			c-16.425-8.534-34.922-8.828-52.201-5.957c-20.167,3.35-38.337,13.539-50.843,30.611c-6.5,8.874-10.939,19.258-16.31,28.96
			L333.688,392.386z M468.104,513.653c11.829,12.2,22.425,23.946,33.925,34.727c9.253,8.675,19.702,15.723,32.53,18.899
			c22.459,5.561,42.591-6.056,52.782-23.938c6.79-11.917,10.672-25.491,15.854-38.323c-3.274,0.744-5.817,2.738-8.449,4.609
			c-5.003,3.561-9.728,7.728-15.182,10.382c-5.641,2.745-11.894,4.659-18.089,5.749c-10.94,1.923-22.037,3.975-33.076,4.024
			c-9.052,0.04-18.285-2.116-27.133-4.456c-10.228-2.705-20.001-6.875-27.932-16.573c5.237-0.26,9.295-0.46,13.353-0.661
			c-7.644-5.788-16.581-2.645-19.954,1.686c-4.465,5.73-5.912,16.153-2.352,20.843C465.702,524.599,466.98,518.776,468.104,513.653z
			 M341.515,297.947c0.894-1.607,1.994-3.134,2.648-4.833c4.292-11.139,11.661-19.741,22.305-24.899
			c10.917-5.291,22.848-5.237,34.731-4.623c1.604,0.083,3.25-0.628,4.875-0.972c-1.027-1.392-1.781-3.182-3.128-4.108
			c-7.215-4.962-15.447-5.128-23.861-5.083C355.063,253.557,337.598,273.014,341.515,297.947z M317.621,260.722
			c-7.048-3.954-14.073-7.483-20.679-11.672c-25.301-16.042-52.183-27.939-82.098-32.09c-1.562-0.217-3.244,0.443-4.87,0.695
			c1.369,0.926,2.629,2.398,4.124,2.698c25.059,5.022,48.25,14.729,70.091,27.799c8.083,4.836,15.868,10.17,23.964,14.98
			C311.139,264.907,314.858,267.321,317.621,260.722z M551.05,239.917c1.199,0.764,2.076,1.657,2.41,1.486
			c8.274-4.222,16.936-2.776,25.558-1.873c10.215,1.07,20.233,2.526,28.206,10.125c1.348,1.284,4.076,1.121,6.166,1.626
			c-0.473-2.179-0.189-5.21-1.536-6.404c-11.336-10.05-23.289-19.067-39.889-16.058C564.094,230.245,556.89,233.139,551.05,239.917z
			 M458.314,702.269c2.5,2.075,4.802-0.274,6.66-2.767c7.926-10.627,15.848-21.265,23.459-32.116
			c2.777-3.96,4.687-8.527,7.346-13.476c-1.938,0-3.103-0.305-3.35,0.043C481.098,669.896,469.845,685.894,458.314,702.269z
			 M435.337,696.447c8.001,1.208,46.963-32.925,46.179-39.721C466.305,669.81,451.094,682.894,435.337,696.447z M505.133,647.73
			c-2.603,0.638-3.293,0.608-3.641,0.938c-0.531,0.506-1.036,1.214-1.193,1.915c-3.187,14.21-9.57,27.026-16.854,39.497
			c-0.697,1.194,0.165,3.302,0.302,4.984c1.264-0.938,3.115-1.604,3.697-2.857c4.686-10.113,9.288-20.272,13.576-30.56
			C502.729,657.551,503.58,653.098,505.133,647.73z M353.629,703.691c0.771,0.211,1.543,0.422,2.313,0.634
			c6.392-13.25,12.475-26.605,13.975-41.522c-0.822-0.287-1.645-0.574-2.467-0.861C362.843,675.858,358.236,689.775,353.629,703.691
			z"/>
		<path fill-rule="evenodd" clip-rule="evenodd" fill="#F15A29" d="M139.566,725.798c12.171-13.432,23.953-26.433,35.734-39.435
			c-0.298-0.409-0.596-0.818-0.894-1.229c-1.09,0.685-2.312,1.225-3.25,2.076c-12.055,10.925-23.992,21.983-36.207,32.724
			c-1.309,1.151-4.645,1.402-6.26,0.564c-8.052-4.172-15.031-9.783-20.453-16.501c16.209-13.71,31.884-26.969,47.56-40.229
			c-0.383-0.492-0.766-0.986-1.148-1.479c-5.284,4.021-10.514,8.112-15.862,12.045c-9.46,6.959-18.942,13.892-28.521,20.686
			c-3.823,2.711-7.663,3.827-10.707-1.417c-3.757-6.474-7.723-12.828-11.594-19.237c-2.339-3.872,0.625-4.771,3.231-6.369
			c18.85-11.565,37.607-23.282,56.379-34.973c0.47-0.294,0.781-0.842,1.824-2.003c-22.065,11.46-43.301,22.49-65.096,33.811
			c-1.485-2.303-3.121-4.003-3.787-6.023c-2.363-7.169-4.116-14.547-6.649-21.649c-1.714-4.808-0.3-7.35,4.238-8.812
			c18.259-5.889,36.518-11.781,54.762-17.716c2.678-0.87,5.28-1.976,7.795-3.759c-7.413,1.559-14.867,2.947-22.229,4.714
			c-14.708,3.529-29.35,7.337-44.075,10.789c-1.285,0.302-4.218-1.035-4.312-1.849c-1.264-11.043-2.161-22.129-3.207-33.868
			c17.321-0.794,33.359-1.53,49.396-2.266c0.055-0.348,0.11-0.695,0.165-1.043c-3.134-0.585-6.25-1.536-9.405-1.689
			c-11.405-0.553-22.821-0.989-34.237-1.138c-3.941-0.052-5.019-1.218-4.285-5.102c1.421-7.519,2.189-15.168,3.812-22.637
			c0.329-1.515,3.277-3.556,4.96-3.502c10.019,0.316,20.015,1.291,30.031,1.805c5.232,0.269,10.489,0.048,15.914-1.089
			c-15.511-2.44-31.021-4.881-47.351-7.45c3.835-9.658,6.909-19.571,15.215-25.111c3.891-2.594,10.838-1.295,16.287-0.709
			c9.917,1.065,19.742,4.036,29.621,4.108c9.06,0.065,18.141-2.644,27.608-4.196c-10.868,65.372,12.964,117.125,67.29,155.652
			c-5.882,2.69-12.169,4.278-16.779,7.964c-7.746,6.193-14.752,13.424-21.475,20.763c-8.995,9.821-17.394,20.188-26.15,30.231
			c-0.606,0.694-2.072,0.957-3.113,0.908C155.468,731.734,146.917,730.058,139.566,725.798z"/>
		<path fill-rule="evenodd" clip-rule="evenodd" fill="#F15A29" d="M197.917,412.12c15.813-10.427,25.209-5.96,37.787,4.567
			c11.349,9.499,21.405,20.244,29.267,32.797c4.961,7.921,9.125,16.341,12.953,25.098c-27.551-20.934-58.116-28.836-91.87-24.856
			c8.581,5.617,18.689,0.607,26.463,4.017c-4.853,3.143-10.777,6.625-16.299,10.658c-5.362,3.916-11.732,7.064-14.227,13.77
			c0.468,0.55,0.937,1.099,1.404,1.648c2.794-2.232,5.55-4.515,8.394-6.682c2.845-2.168,5.779-4.22,9.223-6.722
			c6.114,14.696-3.263,22.876-11.627,31.501c6.029,1.573,7.833-3.291,10.79-6.387c4.978-5.212,7.833-11.375,8.43-18.519
			c0.301-3.615-1.263-8.885,0.598-10.59c5.539-5.076,12.92-6.972,20.553-5.665c15.585,2.668,29.221,9.338,40.54,20.537
			c0.914,0.904,2.12,1.683,3.334,2.08c4.555,1.491,5.277,3.824,1.532,6.955c-2.767,2.313-5.912,4.608-9.281,5.695
			c-14.235,4.589-28.531,9.043-42.983,12.872c-6.274,1.661-12.966,2.182-19.492,2.363c-13.246,0.367-17.553-3.121-20.569-16.13
			c-3.533-15.238-2.604-30.566-1.241-44.861c7.6-1.595,14.217-2.659,20.61-4.5c2.198-0.634,5.571-3.438,5.384-4.849
			c-0.438-3.296-1.918-7.324-4.382-9.323c-8.278-6.716-16.656-12.969-21.473-23.057c-5.679-11.891-5.986-23.548-0.787-35.513
			c7.969-18.337,21.505-32.845,33.202-48.639c4.864-6.566,8.784-13.832,13.485-21.342c8.497,4.131,16.572,10.617,22.728,18.841
			c6.064,8.104,10.86,17.175,15.947,25.976c0.979,1.695,1.576,4.438,0.903,6.12c-3.2,8.003-6.898,15.807-10.434,23.713
			c-15.729-5.823-30.339-11.801-46.217-12.848c-0.22,0.499-0.439,0.998-0.659,1.497c1.105,0.641,2.144,1.47,3.327,1.894
			c11.748,4.207,23.519,8.348,35.284,12.506c4.061,1.436,4.65,3.472,2.469,7.483c-3.28,6.03-5.66,12.549-8.44,18.901
			c-4.475-1.058-8.949-2.603-13.535-3.097c-9.399-1.013-18.855-1.525-28.297-2.084c-1.667-0.099-3.375,0.589-5.07,0.883
			c-4.368,0.759-5.01,2.979-2.557,6.442C194.64,407.463,196.185,409.663,197.917,412.12z"/>
		<path fill-rule="evenodd" clip-rule="evenodd" fill="#F15A29" d="M823.463,326.314c-32.064,19.006-64.205,34.041-97.187,47.342
			c-2.861,1.154-5.729,2.335-8.456,3.765c-0.763,0.4-1.04,1.73-1.541,2.634c1.102,0.27,2.432,1.083,3.271,0.729
			c23.39-9.824,46.779-19.651,70.055-29.738c10.763-4.664,21.338-9.77,31.893-14.896c3.184-1.546,4.643-0.928,5.344,2.428
			c3.125,14.94-0.827,25.052-15.113,34.054c-17.612,11.098-36.653,18.62-56.501,24.205c-11.8,3.321-23.869,5.726-35.887,8.212
			c-5.631,1.164-11.311-5.58-9.7-12.985c2.279-10.476,0.642-20.648,0.109-30.973c-0.074-1.441,1.412-3.575,2.771-4.383
			c15.408-9.157,31.204-17.688,46.351-27.251c14.94-9.434,29.377-19.688,43.76-29.967c3.561-2.544,4.975-2.284,6.902,1.398
			C813.979,309.375,818.721,317.704,823.463,326.314z"/>
		<path fill-rule="evenodd" clip-rule="evenodd" fill="#F15A29" d="M694.05,324.107c-10.709-9.717-21.038-18.997-31.246-28.407
			c-3.386-3.12-6.767-6.343-9.522-9.993c-1.099-1.453-1.37-4.625-0.54-6.271c8.483-16.825,17.058-33.615,26.207-50.082
			c1.358-2.444,5.84-4.45,8.865-4.435c10.226,0.05,20.452,1.044,30.665,1.846c1.179,0.093,2.276,1.237,3.824,2.132
			c-16.809,23-32.547,46.218-45.336,71.234c0.7,0.479,1.4,0.958,2.1,1.437c2.014-2.957,3.951-5.968,6.053-8.86
			c11.647-16.032,23.322-32.043,35.018-48.04c2.826-3.866,5.611-7.786,8.753-11.385c1.015-1.161,3.513-2.343,4.657-1.874
			c12.795,5.25,24.961,11.624,35.878,21.915C743.951,277.247,718.761,300.902,694.05,324.107z"/>
		<path fill-rule="evenodd" clip-rule="evenodd" fill="#F15A29" d="M802.131,288.414c-13.455,10.518-25.558,21.001-38.691,29.976
			c-15.225,10.401-31.403,19.401-47.05,29.196c-2.812,1.761-5.056,4.429-7.278,6.424c-3.314-6.662-7.483-14.701-11.208-22.94
			c-0.501-1.106,0.806-3.711,2.014-4.802c12.324-11.126,24.662-22.247,37.274-33.041c12.154-10.399,24.653-20.394,36.964-30.611
			c3.113-2.584,5.334-1.081,7.404,1.369C788.153,271.789,794.724,279.613,802.131,288.414z"/>
		<path fill-rule="evenodd" clip-rule="evenodd" fill="#F15A29" d="M225.398,405.074c4.846,1.025,9.692,2.052,15.125,3.201
			c-0.417,1.557-1.024,3.821-1.681,6.269c-5.086-3.163-9.607-5.974-14.128-8.785C224.943,405.531,225.17,405.303,225.398,405.074z"
			/>
	</g>
	<path fill-rule="evenodd" clip-rule="evenodd" fill="#ED1C24" d="M557.236,563.557c-22.082,5.362-38.308-3.999-53.961-17.517
		C524.264,543.402,536.928,545.032,557.236,563.557z"/>
	<g>
		<path fill-rule="evenodd" clip-rule="evenodd" fill="#FFFFFF" d="M549.499,381.706c-0.752-27.43,9.31-49.972,30.323-67.912
			c13.896-11.865,29.78-18.984,47.711-19.302c34.717-0.616,57.425,18.04,72.477,47.95c8.046,15.99,10.21,32.884,6.094,49.873
			c-2.039,8.423-7.399,16.362-12.482,23.666c-14.14,20.314-34.854,29.763-58.739,32.245c-21.618,2.248-41.446-3.058-59.911-15.213
			c-13.809-9.09-22.559-20.753-25.347-36.795C548.808,391.516,549.499,386.551,549.499,381.706z M641.682,387.825
			c0.66-24.042-20.444-41.149-39.478-41.827c-25.314-0.901-43.772,18.06-43.724,41.708c0.051,23.983,16.45,41.516,41.403,41.628
			C624.102,429.443,641.621,411.819,641.682,387.825z"/>
		<path fill-rule="evenodd" clip-rule="evenodd" fill="#FFFFFF" d="M353.176,227.485c-17.58,21.345-29.188,45.714-36.389,72.197
			c-7.363,27.08-11.389,54.578-11.697,82.784c-0.329,30.124,2.439,59.833,9.047,89.099c7.626,33.78,18.469,66.608,36.511,96.387
			c10.524,17.37,24.876,30.728,44.435,38.913c15.589,6.521,31.411,11.173,47.847,14.203c3.771,0.696,7.782-0.002,11.649,0.331
			c1.447,0.125,2.799,1.36,4.193,2.09c-1.107,1.103-2.156,3.092-3.334,3.172c-10.962,0.735-22.001,2.087-32.913,1.451
			c-22.368-1.301-42.438-10.491-61.66-21.143c-14.3-7.923-23.601-20.792-30.802-35.323c-10.546-21.278-18.951-43.37-24.835-66.331
			c-6.299-24.579-12.899-49.145-13.965-74.737c-0.46-11.04-2.346-22.116-1.788-33.084c1.466-28.862,4.467-57.458,13.232-85.381
			c8.136-25.92,19.971-49.607,36.284-71.14c3.911-5.164,8.695-9.667,13.078-14.474C352.438,226.828,352.807,227.156,353.176,227.485
			z"/>
		<path fill-rule="evenodd" clip-rule="evenodd" fill="#FFFFFF" d="M256.189,667.552c-4.001,0.841-10.9,2.463-17.876,3.612
			c-1.499,0.248-3.778-0.767-4.85-1.962c-8.77-9.768-17.787-19.365-25.874-29.686c-16.006-20.426-26.217-43.908-33.368-68.637
			c-5.312-18.366-6.321-37.378-5.228-56.42c0.305-5.324,5.443-4.987,9.156-5.771c1.396-0.296,2.992,0.527,4.502,0.564
			c11.651,0.285,11.581,0.428,10.98,12.307c-0.406,8.02-0.578,16.12,0.078,24.107c0.833,10.158,2.061,20.35,4.088,30.33
			c4.404,21.685,13.619,41.235,28.233,57.987C236.191,645.628,246.677,656.985,256.189,667.552z"/>
		<path fill-rule="evenodd" clip-rule="evenodd" fill="#FFFFFF" d="M333.499,392.572c3.215-5.339,6.573-10.598,9.623-16.031
			c13.164-23.454,34.019-37.65,59.479-41.807c23.651-3.861,46.686,0.766,64.771,19.932c10.365,10.985,20.117,22.133,24.866,36.535
			c8.673,26.296,7.333,50.752-11.949,73.186c-16.126,18.762-35.96,28.786-59.951,30.829c-23.191,1.975-44.426-3.067-64.324-16.607
			c-24.346-16.565-27.973-39.56-25.133-65.705c0.746-6.865,1.871-13.688,2.815-20.523
			C333.688,392.386,333.499,392.572,333.499,392.572z M456.633,433.742c1.346-16.597-9.715-34.633-24.695-42.695
			c-13.159-7.081-34.279-5.735-45.423,3.42c-17.417,14.31-23.349,32.754-17.339,54.089c6.737,23.915,29.799,38.436,55.794,31.192
			C442.429,474.886,458.427,454.336,456.633,433.742z"/>
		<path fill-rule="evenodd" clip-rule="evenodd" fill="#FFFFFF" d="M599.963,365.532c0.118-7.059,5.901-12.979,12.699-13
			c7.451-0.023,14.401,6.62,14.011,13.391c-0.387,6.697-7.671,13.64-14.174,13.509C605.734,379.295,599.843,372.762,599.963,365.532
			z"/>
		<path fill-rule="evenodd" clip-rule="evenodd" fill="#FFFFFF" d="M428.075,397.876c7.684,0.092,13.458,5.757,13.309,13.055
			c-0.136,6.668-7.262,14.005-13.359,13.757c-7.529-0.306-13.483-6.865-13.323-14.677
			C414.849,402.864,420.446,397.785,428.075,397.876z"/>
		<path fill="#FFFFFF" d="M296,703c9,8,13,8,13,8c7.507-11.655,22.386-33.491,29.244-44.139c-7.142-3.219-13.152-5.617-18.88-8.564
			c-23.691-12.191-39.054-31.558-43.58-57.526c-3.752-21.533-4.074-43.652-6.22-65.481c-1.274-12.957-3.139-25.856-4.839-39.592
			c-10.119,3.229-18.874,5.92-27.518,8.932c-0.9,0.313-1.723,2.584-1.594,3.846c1.073,10.55,2.113,21.115,3.671,31.6
			c2.668,17.963,7.88,35.279,15.335,51.795c12.026,26.644,28.376,50.027,52.835,66.942c7.027,4.859,6.99,4.902,1.522,11.879
			c-1.071,1.367-1.876,3.025-3.167,4.12c-2.93,2.484-15.746,13.864-18.81,16.189"/>
		<path fill-rule="evenodd" clip-rule="evenodd" fill="#FFFFFF" d="M254.454,386.42c-1.325,12.801-2.65,25.602-4.02,38.841
			c-8.68-6.353-9.19-6.911-6.433-15.379c2.635-8.092,6.069-15.924,9.151-23.87C253.586,386.147,254.02,386.284,254.454,386.42z"/>
	</g>
</g>
<g id="Layer_3">
</g>
<g id="Layer_2">
</g>
</svg>
